<?xml version="1.0" encoding="UTF-8"?>
<!DOCTYPE svg PUBLIC "-//W3C//DTD SVG 1.1//EN" "http://www.w3.org/Graphics/SVG/1.1/DTD/svg11.dtd">
<svg xmlns="http://www.w3.org/2000/svg" version="1.1" width="190px" height="189px" style="shape-rendering:geometricPrecision; text-rendering:geometricPrecision; image-rendering:optimizeQuality; fill-rule:evenodd; clip-rule:evenodd" xmlns:xlink="http://www.w3.org/1999/xlink">
<g><path style="opacity:1" fill="#fbf9f8" d="M -0.5,-0.5 C 62.8333,-0.5 126.167,-0.5 189.5,-0.5C 189.5,62.5 189.5,125.5 189.5,188.5C 126.167,188.5 62.8333,188.5 -0.5,188.5C -0.5,125.5 -0.5,62.5 -0.5,-0.5 Z"/></g>
<g><path style="opacity:1" fill="#ef7c23" d="M 184.5,74.5 C 185.218,83.4818 185.552,92.4818 185.5,101.5C 179.205,148.235 152.872,176.069 106.5,185C 58.8629,188.32 25.6962,168.153 7,124.5C -6.41478,75.3862 8.41855,37.5529 51.5,11C 92.696,-6.64145 129.529,-0.141447 162,30.5C 173.459,43.0841 180.959,57.7508 184.5,74.5 Z"/></g>
<g><path style="opacity:1" fill="#faf5f1" d="M 84.5,3.5 C 129.704,2.24824 161.204,22.2482 179,63.5C 191.11,107.845 178.61,143.345 141.5,170C 99.2547,192.117 61.0881,186.617 27,153.5C 1.57104,121.738 -2.42896,87.4049 15,50.5C 31.0384,24.2351 54.2051,8.56839 84.5,3.5 Z"/></g>
<g><path style="opacity:1" fill="#f2964c" d="M 95.5,12.5 C 97.3464,12.2222 98.6798,12.8888 99.5,14.5C 94.7203,14.0841 94.5536,15.0841 99,17.5C 99.4935,19.1341 99.6602,20.8008 99.5,22.5C 96.9552,22.8495 94.9552,22.0162 93.5,20C 94.7425,19.6886 95.7425,20.1886 96.5,21.5C 97.3081,21.1924 97.9747,20.6924 98.5,20C 94.688,18.5678 93.688,16.0678 95.5,12.5 Z"/></g>
<g><path style="opacity:1" fill="#f3a565" d="M 65.5,17.5 C 67.1674,20.2615 68.1674,23.4281 68.5,27C 66.3945,24.8945 64.0611,22.5611 61.5,20C 62.9961,19.4926 64.1627,19.9926 65,21.5C 65.49,20.2068 65.6567,18.8734 65.5,17.5 Z"/></g>
<g><path style="opacity:1" fill="#ef8633" d="M 82.5,13.5 C 86.8383,13.6219 87.1716,13.9553 83.5,14.5C 83.5,15.5 83.5,16.5 83.5,17.5C 84.552,17.3505 85.552,17.5172 86.5,18C 84.9544,19.4396 84.121,21.2729 84,23.5C 82.8011,20.2744 82.3011,16.941 82.5,13.5 Z"/></g>
<g><path style="opacity:1" fill="#f1974e" d="M 102.5,13.5 C 104.665,13.1159 106.332,13.7826 107.5,15.5C 106.07,15.3062 104.57,15.3062 103,15.5C 102.505,17.4727 102.338,19.4727 102.5,21.5C 104.109,21.0941 105.443,21.0941 106.5,21.5C 104.764,24.1047 102.931,24.1047 101,21.5C 100.282,18.5929 100.782,15.9262 102.5,13.5 Z"/></g>
<g><path style="opacity:1" fill="#f2a25f" d="M 108.5,14.5 C 109.497,14.4701 110.164,14.9701 110.5,16C 109.993,18.5411 109.326,21.0411 108.5,23.5C 108.346,20.7808 108.346,17.7808 108.5,14.5 Z"/></g>
<g><path style="opacity:1" fill="#f19144" d="M 112.5,15.5 C 114.288,15.2148 115.955,15.5481 117.5,16.5C 116.609,17.5896 115.609,17.5896 114.5,16.5C 113.614,17.325 113.281,18.325 113.5,19.5C 114.675,19.281 115.675,19.6143 116.5,20.5C 115.609,21.5896 114.609,21.5896 113.5,20.5C 112.1,22.7817 112.766,24.2817 115.5,25C 113.866,25.4935 112.199,25.6602 110.5,25.5C 110.851,22.0968 111.518,18.7635 112.5,15.5 Z"/></g>
<g><path style="opacity:1" fill="#f08531" d="M 121.5,23.5 C 121.833,24.1667 122.167,24.8333 122.5,25.5C 122.631,26.3764 122.298,27.0431 121.5,27.5C 120.692,25.5767 120.192,23.5767 120,21.5C 119.252,23.3325 118.252,24.9991 117,26.5C 117.083,23.0866 118.249,20.0866 120.5,17.5C 121.466,19.396 121.799,21.396 121.5,23.5 Z"/></g>
<g><path style="opacity:1" fill="#f3a668" d="M 122.5,25.5 C 122.167,24.8333 121.833,24.1667 121.5,23.5C 122.339,22.3588 123.006,21.0255 123.5,19.5C 124.167,18.1667 124.833,18.1667 125.5,19.5C 124.481,21.604 123.481,23.604 122.5,25.5 Z"/></g>
<g><path style="opacity:1" fill="#f3a667" d="M 75.5,14.5 C 77.7224,14.178 79.5557,14.8446 81,16.5C 81.769,19.0991 81.6023,21.5991 80.5,24C 76.294,24.8349 74.294,23.0016 74.5,18.5C 74.6233,17.0755 74.9566,15.7421 75.5,14.5 Z"/></g>
<g><path style="opacity:1" fill="#faeee5" d="M 76.5,15.5 C 77.4959,15.4142 78.3292,15.7476 79,16.5C 79.4955,18.4727 79.6621,20.4727 79.5,22.5C 75.6588,21.5158 74.6588,19.1825 76.5,15.5 Z"/></g>
<g><path style="opacity:1" fill="#f1954b" d="M 53.5,23.5 C 56.0818,25.9968 57.5818,28.9968 58,32.5C 55.9617,29.7568 54.4617,26.7568 53.5,23.5 Z"/></g>
<g><path style="opacity:1" fill="#f29a53" d="M 57.5,20.5 C 59.9418,20.1192 60.6085,20.7859 59.5,22.5C 61.2514,24.9724 62.0847,27.639 62,30.5C 60.7592,27.0914 58.5925,24.4248 55.5,22.5C 56.2427,21.8182 56.9094,21.1515 57.5,20.5 Z"/></g>
<g><path style="opacity:1" fill="#f19043" d="M 127.5,20.5 C 130.68,20.1762 131.847,21.5096 131,24.5C 130.275,22.842 129.108,22.342 127.5,23C 125.845,24.4443 125.178,26.2776 125.5,28.5C 126.822,28.67 127.989,28.3366 129,27.5C 129.667,28.1667 129.667,28.8333 129,29.5C 127.644,30.3802 126.144,30.7135 124.5,30.5C 123.857,26.5669 124.857,23.2336 127.5,20.5 Z"/></g>
<g><path style="opacity:1" fill="#f08f40" d="M 131.5,29.5 C 132.307,24.0873 134.64,22.9206 138.5,26C 133.284,25.2072 132.617,26.5406 136.5,30C 134.893,29.9813 133.226,29.8146 131.5,29.5 Z"/></g>
<g><path style="opacity:1" fill="#f1964b" d="M 54.5,30.5 C 50.0763,32.5455 47.9097,31.2121 48,26.5C 49.6354,25.1514 51.1354,25.3181 52.5,27C 51.376,27.2492 50.376,27.7492 49.5,28.5C 51.2914,29.1698 52.9581,29.8365 54.5,30.5 Z"/></g>
<g><path style="opacity:1" fill="#f19143" d="M 51.5,35.5 C 51.6309,36.3764 51.2975,37.0431 50.5,37.5C 49.0316,35.6671 47.3649,35.3338 45.5,36.5C 46.8334,37.6199 47.3334,38.9532 47,40.5C 45.1877,37.7198 43.021,35.2198 40.5,33C 43.9783,28.2201 46.645,28.7201 48.5,34.5C 49.4168,35.1272 50.4168,35.4606 51.5,35.5 Z"/></g>
<g><path style="opacity:1" fill="#f08b3a" d="M 88.5,30.5 C 124.128,30.8878 146.628,48.2211 156,82.5C 159.255,115.17 146.089,138.337 116.5,152C 75.3452,162.639 47.5119,148.139 33,108.5C 27.5628,73.2923 41.0628,48.4589 73.5,34C 78.6002,32.6758 83.6002,31.5091 88.5,30.5 Z"/></g>
<g><path style="opacity:1" fill="#f19245" d="M 131.5,29.5 C 131.859,31.371 132.859,32.871 134.5,34C 132.837,34.2649 131.337,33.7649 130,32.5C 129.415,31.0024 129.915,30.0024 131.5,29.5 Z"/></g>
<g><path style="opacity:1" fill="#f9ebdf" d="M 43.5,31.5 C 46.6741,31.9522 47.0075,32.9522 44.5,34.5C 42.4807,33.8671 42.1474,32.8671 43.5,31.5 Z"/></g>
<g><path style="opacity:1" fill="#fbf8f6" d="M 87.5,32.5 C 122.006,32.1819 144.173,48.5153 154,81.5C 157.825,116.039 143.658,139.539 111.5,152C 79.1483,159.115 54.9816,148.282 39,119.5C 27.7054,91.1823 33.2054,66.6823 55.5,46C 65.1979,38.9782 75.8646,34.4782 87.5,32.5 Z"/></g>
<g><path style="opacity:1" fill="#f19a54" d="M 54.5,30.5 C 56.2729,33.676 55.2729,35.3427 51.5,35.5C 51.3893,34.8826 51.056,34.3826 50.5,34C 51.7932,33.51 53.1266,33.3433 54.5,33.5C 54.5,32.5 54.5,31.5 54.5,30.5 Z"/></g>
<g><path style="opacity:1" fill="#ee7a1a" d="M 149.5,40.5 C 148.596,39.791 148.263,38.791 148.5,37.5C 148.783,36.7109 149.283,36.0442 150,35.5C 150.384,37.1966 150.218,38.8632 149.5,40.5 Z"/></g>
<g><path style="opacity:1" fill="#f08c3b" d="M 37.5,34.5 C 39.9272,35.2789 39.9272,36.4455 37.5,38C 38.8187,39.6279 40.1521,39.4613 41.5,37.5C 42.5937,38.868 42.2603,40.0347 40.5,41C 42.1371,42.951 43.6371,42.7843 45,40.5C 45.1667,43 44,44.1667 41.5,44C 39.6667,42.1667 37.8333,40.3333 36,38.5C 36.1433,37.1351 36.6433,35.8018 37.5,34.5 Z"/></g>
<g><path style="opacity:1" fill="#f2964d" d="M 148.5,37.5 C 148.263,38.791 148.596,39.791 149.5,40.5C 149.435,40.9382 149.601,41.2716 150,41.5C 151,40.5 152,39.5 153,38.5C 152.253,41.4447 150.42,43.7781 147.5,45.5C 146.758,43.8918 146.591,42.2251 147,40.5C 143.108,43.0564 141.442,42.0564 142,37.5C 140.992,37.0183 139.825,36.8516 138.5,37C 146.436,29.0999 148.102,29.9332 143.5,39.5C 143.833,39.8333 144.167,40.1667 144.5,40.5C 145.852,39.4756 147.185,38.4756 148.5,37.5 Z"/></g>
<g><path style="opacity:1" fill="#f29b54" d="M 33.5,39.5 C 35.7848,40.9568 37.6181,42.9568 39,45.5C 39.7494,46.635 39.5827,47.635 38.5,48.5C 35.9952,46.7467 33.3286,45.2467 30.5,44C 32.5672,43.4644 34.4006,43.9644 36,45.5C 35.5174,43.4634 34.6841,41.4634 33.5,39.5 Z"/></g>
<g><path style="opacity:1" fill="#f19449" d="M 154.5,41.5 C 155.496,41.4142 156.329,41.7476 157,42.5C 158.033,47.7995 155.866,50.2995 150.5,50C 149.643,49.3109 148.977,48.4776 148.5,47.5C 150.215,45.1182 152.215,43.1182 154.5,41.5 Z"/></g>
<g><path style="opacity:1" fill="#faefe6" d="M 153.5,43.5 C 154.5,43.5 155.5,43.5 156.5,43.5C 156.301,47.713 154.301,49.0464 150.5,47.5C 151.524,46.1482 152.524,44.8149 153.5,43.5 Z"/></g>
<g><path style="opacity:1" fill="#ed6f07" d="M 110.5,45.5 C 112.199,45.3398 113.866,45.5065 115.5,46C 111.405,49.7038 107.905,53.8705 105,58.5C 103.684,61.6883 103.184,65.0217 103.5,68.5C 109.004,68.458 114.337,67.458 119.5,65.5C 124.38,67.2267 126.713,70.7267 126.5,76C 125.033,88.4695 119.033,98.1361 108.5,105C 107.365,105.749 106.365,105.583 105.5,104.5C 107.373,101.276 107.707,97.9423 106.5,94.5C 104.404,96.5938 102.571,98.9271 101,101.5C 100.692,100.692 100.192,100.025 99.5,99.5C 98.1667,100.5 96.8333,101.5 95.5,102.5C 94.914,102.291 94.414,101.957 94,101.5C 89.8778,105.317 85.0445,107.15 79.5,107C 82.6667,104.5 85.8333,102 89,99.5C 90.5588,97.7834 91.3921,95.7834 91.5,93.5C 85.3663,95.2664 79.1996,96.9331 73,98.5C 64.744,98.5779 59.744,94.5779 58,86.5C 57.1582,79.2005 58.8249,72.5338 63,66.5C 68.6773,59.4817 75.5106,53.9817 83.5,50C 86.6019,47.9636 89.9352,46.9636 93.5,47C 90.7047,48.7932 88.2047,50.9598 86,53.5C 85.4092,54.4835 85.7425,55.1501 87,55.5C 94.3968,50.8779 102.23,47.5446 110.5,45.5 Z"/></g>
<g><path style="opacity:1" fill="#f29b55" d="M 28.5,46.5 C 31.5355,46.5316 34.2021,48.0316 36.5,51C 33.5037,50.3293 30.837,48.8293 28.5,46.5 Z"/></g>
<g><path style="opacity:1" fill="#f2954b" d="M 32.5,56.5 C 29.9751,56.5769 27.6417,55.4102 25.5,53C 27.5,52.6667 29.5,52.3333 31.5,52C 30.9056,51.5357 30.2389,51.369 29.5,51.5C 28.9094,50.8485 28.2427,50.1818 27.5,49.5C 27.8333,49.1667 28.1667,48.8333 28.5,48.5C 31.0094,49.9213 33.3428,51.5879 35.5,53.5C 33.9223,54.2978 32.2556,54.7978 30.5,55C 31.0442,55.7172 31.7109,56.2172 32.5,56.5 Z"/></g>
<g><path style="opacity:1" fill="#f9dac2" d="M 29.5,51.5 C 30.2389,51.369 30.9056,51.5357 31.5,52C 29.5,52.3333 27.5,52.6667 25.5,53C 27.6417,55.4102 29.9751,56.5769 32.5,56.5C 33.0431,56.56 33.3764,56.8933 33.5,57.5C 32.7573,58.1818 32.0906,58.8485 31.5,59.5C 29.357,57.9257 27.0237,56.5923 24.5,55.5C 23.8933,55.6236 23.56,55.9569 23.5,56.5C 22.9569,56.44 22.6236,56.1067 22.5,55.5C 23.8532,54.4763 24.5198,53.143 24.5,51.5C 26.1667,51.5 27.8333,51.5 29.5,51.5 Z"/></g>
<g><path style="opacity:1" fill="#f19043" d="M 162.5,51.5 C 164.416,52.6653 165.249,54.332 165,56.5C 164.439,55.9781 163.772,55.6448 163,55.5C 161.028,57.0781 158.862,57.9115 156.5,58C 159.455,56.5518 161.455,54.3851 162.5,51.5 Z"/></g>
<g><path style="opacity:1" fill="#f29951" d="M 23.5,56.5 C 23.56,55.9569 23.8933,55.6236 24.5,55.5C 27.0237,56.5923 29.357,57.9257 31.5,59.5C 31.2056,62.6461 29.539,63.8128 26.5,63C 24.3359,62.0857 22.3359,60.919 20.5,59.5C 20.8333,59.1667 21.1667,58.8333 21.5,58.5C 23.8082,61.0073 26.4749,61.674 29.5,60.5C 27.8525,58.6736 25.8525,57.3403 23.5,56.5 Z"/></g>
<g><path style="opacity:1" fill="#f08d3d" d="M 163.5,58.5 C 165.958,58.2275 167.625,59.2275 168.5,61.5C 168.167,61.8333 167.833,62.1667 167.5,62.5C 166.833,61.5 166.167,60.5 165.5,59.5C 165.167,59.6667 164.833,59.8333 164.5,60C 164.201,61.3204 164.034,62.8204 164,64.5C 160.545,60.6124 159.211,61.279 160,66.5C 158.916,65.3349 158.083,64.0016 157.5,62.5C 159.565,61.1433 161.565,59.81 163.5,58.5 Z"/></g>
<g><path style="opacity:1" fill="#f29b54" d="M 169.5,66.5 C 165.423,66.0171 163.09,67.6837 162.5,71.5C 163.552,71.3505 164.552,71.5172 165.5,72C 160.411,72.7247 159.411,71.0581 162.5,67C 164.895,65.4022 167.228,65.2355 169.5,66.5 Z"/></g>
<g><path style="opacity:1" fill="#f19145" d="M 169.5,66.5 C 172.14,67.7936 172.14,69.127 169.5,70.5C 169.094,69.4425 169.094,68.1092 169.5,66.5 Z"/></g>
<g><path style="opacity:1" fill="#f19347" d="M 17.5,68.5 C 20.0668,67.7802 22.7335,68.1135 25.5,69.5C 25.8333,69.8333 26.1667,70.1667 26.5,70.5C 24.8333,71.1667 23.1667,71.8333 21.5,72.5C 22.8333,73.1667 24.1667,73.8333 25.5,74.5C 22.3683,74.8556 19.3683,74.0222 16.5,72C 23.5367,70.9118 23.87,69.7451 17.5,68.5 Z"/></g>
<g><path style="opacity:1" fill="#f2954b" d="M 167.5,72.5 C 169.199,72.3398 170.866,72.5065 172.5,73C 167.386,74.819 167.72,76.319 173.5,77.5C 170.286,78.9775 166.953,79.4775 163.5,79C 165.223,78.4768 166.556,77.4768 167.5,76C 167.167,75.5 166.833,75 166.5,74.5C 165.232,75.4279 163.899,75.5946 162.5,75C 164.175,74.0147 165.842,73.1814 167.5,72.5 Z"/></g>
<g><path style="opacity:1" fill="#f19246" d="M 15.5,75.5 C 18.5219,75.804 21.5219,76.304 24.5,77C 22.9984,77.5831 21.6651,78.4164 20.5,79.5C 21.0253,80.1924 21.6919,80.6924 22.5,81C 20.1667,81.6667 17.8333,81.6667 15.5,81C 14.2475,79.1722 14.2475,77.3388 15.5,75.5 Z"/></g>
<g><path style="opacity:1" fill="#faeadd" d="M 16.5,76.5 C 18.0481,76.8212 18.7148,77.8212 18.5,79.5C 15.7524,79.5983 15.0857,78.5983 16.5,76.5 Z"/></g>
<g><path style="opacity:1" fill="#f29c56" d="M 165.5,80.5 C 168.187,80.3359 170.854,80.5026 173.5,81C 172.5,82 171.5,83 170.5,84C 171.938,84.2189 173.271,84.7189 174.5,85.5C 171.216,86.657 167.882,86.8236 164.5,86C 165.833,85 167.167,84 168.5,83C 167.167,82.6667 165.833,82.3333 164.5,82C 165.056,81.6174 165.389,81.1174 165.5,80.5 Z"/></g>
<g><path style="opacity:1" fill="#f29a52" d="M 13.5,82.5 C 14.9432,83.3351 15.9432,84.6684 16.5,86.5C 18.4041,82.5564 19.4041,82.8897 19.5,87.5C 20.5,87.5 21.5,87.5 22.5,87.5C 23.0031,82.5 23.3364,82.8333 23.5,88.5C 20.1194,88.5405 16.7861,88.2071 13.5,87.5C 13.5,85.8333 13.5,84.1667 13.5,82.5 Z"/></g>
<g><path style="opacity:1" fill="#f29f5c" d="M 184.5,74.5 C 185.931,79.9328 186.598,85.5995 186.5,91.5C 186.498,95.0175 186.165,98.3509 185.5,101.5C 185.552,92.4818 185.218,83.4818 184.5,74.5 Z"/></g>
<g><path style="opacity:1" fill="#f4b987" d="M 22.5,91.5 C 20.8333,90.1667 19.1667,90.1667 17.5,91.5C 16.0222,91.762 14.6888,91.4287 13.5,90.5C 16.8333,89.1667 20.1667,89.1667 23.5,90.5C 23.3764,91.1067 23.0431,91.44 22.5,91.5 Z"/></g>
<g><path style="opacity:1" fill="#f18d3f" d="M 167.5,87.5 C 169.989,87.2978 172.323,87.7978 174.5,89C 175.86,90.9376 175.527,92.6043 173.5,94C 171.167,94.6667 168.833,94.6667 166.5,94C 163.777,91.3413 164.11,89.1747 167.5,87.5 Z"/></g>
<g><path style="opacity:1" fill="#faefe5" d="M 166.5,89.5 C 168.833,89.5 171.167,89.5 173.5,89.5C 172.925,93.4735 170.758,94.4735 167,92.5C 166.517,91.552 166.351,90.552 166.5,89.5 Z"/></g>
<g><path style="opacity:1" fill="#f08b39" d="M 22.5,91.5 C 21.1667,91.5 19.8333,91.5 18.5,91.5C 18.5,92.5 18.5,93.5 18.5,94.5C 18.1667,95.8333 17.8333,95.8333 17.5,94.5C 17.5,93.5 17.5,92.5 17.5,91.5C 19.1667,90.1667 20.8333,90.1667 22.5,91.5 Z"/></g>
<g><path style="opacity:1" fill="#f2a769" d="M 164.5,95.5 C 167.91,95.4571 171.243,95.9571 174.5,97C 171.854,97.4974 169.187,97.6641 166.5,97.5C 166.719,98.675 166.386,99.675 165.5,100.5C 164.548,98.9547 164.215,97.288 164.5,95.5 Z"/></g>
<g><path style="opacity:1" fill="#ef8935" d="M 13.5,97.5 C 15.829,99.0493 18.4956,99.8827 21.5,100C 18.6335,100.029 16.1335,100.862 14,102.5C 13.5065,100.866 13.3398,99.1992 13.5,97.5 Z"/></g>
<g><path style="opacity:1" fill="#f08f40" d="M 165.5,101.5 C 167.857,101.337 170.19,101.503 172.5,102C 175.446,105.491 174.612,107.658 170,108.5C 164.943,108.296 163.443,105.963 165.5,101.5 Z"/></g>
<g><path style="opacity:1" fill="#f29e5b" d="M 17.5,103.5 C 19.5273,103.338 21.5273,103.505 23.5,104C 24.5171,105.049 24.6838,106.216 24,107.5C 21.072,109.652 17.9053,110.318 14.5,109.5C 24.8934,107.302 24.8934,105.802 14.5,105C 15.7375,104.768 16.7375,104.268 17.5,103.5 Z"/></g>
<g><path style="opacity:1" fill="#faf3ee" d="M 166.5,102.5 C 169.969,101.887 171.969,103.221 172.5,106.5C 170.473,106.662 168.473,106.495 166.5,106C 165.316,104.855 165.316,103.688 166.5,102.5 Z"/></g>
<g><path style="opacity:1" fill="#ee7413" d="M 71.5,111.5 C 78.051,112.32 84.551,113.32 91,114.5C 91.3333,120.5 91.6667,126.5 92,132.5C 92.1883,126.252 92.6883,120.085 93.5,114C 100.177,113.165 106.843,112.332 113.5,111.5C 113.683,113.936 113.016,116.103 111.5,118C 107.573,119.212 103.573,120.212 99.5,121C 97.6667,121.5 96.5,122.667 96,124.5C 95.3333,127.833 95.3333,131.167 96,134.5C 98.2672,135.935 100.267,135.602 102,133.5C 103.069,130.792 104.236,128.125 105.5,125.5C 106.689,124.571 108.022,124.238 109.5,124.5C 108.173,130.314 106.34,135.981 104,141.5C 100.56,144.868 96.393,146.201 91.5,145.5C 87.5008,145.978 84.0008,144.978 81,142.5C 78.0543,136.83 76.2209,130.83 75.5,124.5C 76.8221,124.33 77.9887,124.663 79,125.5C 79.9734,127.392 80.6401,129.392 81,131.5C 82.2587,135.223 84.5921,136.223 88,134.5C 88.6667,130.833 88.6667,127.167 88,123.5C 87.0975,122.299 85.9308,121.465 84.5,121C 80.2815,120.827 76.2815,119.827 72.5,118C 71.5769,115.959 71.2436,113.792 71.5,111.5 Z"/></g>
<g><path style="opacity:1" fill="#f19041" d="M 19.5,110.5 C 22.5959,109.907 24.9292,110.907 26.5,113.5C 24.2158,117.252 20.8825,118.419 16.5,117C 15.4829,115.951 15.3162,114.784 16,113.5C 17.1451,112.364 18.3117,111.364 19.5,110.5 Z"/></g>
<g><path style="opacity:1" fill="#faede2" d="M 20.5,111.5 C 24.6246,111.723 25.2912,113.223 22.5,116C 20.8659,116.494 19.1992,116.66 17.5,116.5C 17.31,114.041 18.31,112.374 20.5,111.5 Z"/></g>
<g><path style="opacity:1" fill="#f29b55" d="M 163.5,109.5 C 166.602,109.154 169.435,109.821 172,111.5C 173.254,115.111 172.088,116.611 168.5,116C 171.003,114.451 171.003,112.784 168.5,111C 164.313,109.844 163.147,111.011 165,114.5C 166.516,111.949 167.349,112.282 167.5,115.5C 165.833,115.5 164.167,115.5 162.5,115.5C 162.325,113.379 162.659,111.379 163.5,109.5 Z"/></g>
<g><path style="opacity:1" fill="#f1974e" d="M 160.5,117.5 C 163.609,119.021 166.942,119.854 170.5,120C 169.167,120.333 167.833,120.667 166.5,121C 167.5,122 168.5,123 169.5,124C 168.833,124.667 168.167,124.667 167.5,124C 165.019,121.801 162.686,119.634 160.5,117.5 Z"/></g>
<g><path style="opacity:1" fill="#f3a15f" d="M 24.5,117.5 C 28.0714,117.408 29.2381,119.074 28,122.5C 27.2825,123.451 26.4491,123.617 25.5,123C 26.731,121.817 26.731,120.651 25.5,119.5C 25.1285,123.381 23.1285,125.215 19.5,125C 18.2528,123.506 18.2528,122.006 19.5,120.5C 20.1667,121.5 20.8333,122.5 21.5,123.5C 22.1937,121.245 23.1937,119.245 24.5,117.5 Z"/></g>
<g><path style="opacity:1" fill="#ef7c22" d="M 32.5,135.5 C 34.905,135.866 37.2383,136.533 39.5,137.5C 41.1043,137.061 42.6043,136.394 44,135.5C 44.5,135.833 45,136.167 45.5,136.5C 44.7542,137.736 44.4208,139.07 44.5,140.5C 42.8008,140.34 41.1341,140.506 39.5,141C 41.9412,141.036 43.9412,141.869 45.5,143.5C 42.4905,146.874 39.4905,150.208 36.5,153.5C 35.5214,150.047 34.0214,149.714 32,152.5C 31.3162,151.216 31.4829,150.049 32.5,149C 29.5529,148.888 28.2196,147.388 28.5,144.5C 29.9778,144.762 31.3112,144.429 32.5,143.5C 30.1384,143.026 27.805,142.692 25.5,142.5C 29.1081,141.181 32.7748,140.014 36.5,139C 34.4556,138.502 33.1223,137.335 32.5,135.5 Z"/></g>
<g><path style="opacity:1" fill="#f2ab70" d="M 149.5,134.5 C 150.778,134.782 151.778,135.449 152.5,136.5C 152.013,137.473 151.513,138.473 151,139.5C 150.648,137.753 150.148,136.086 149.5,134.5 Z"/></g>
<g><path style="opacity:1" fill="#ee7c22" d="M 149.5,134.5 C 150.148,136.086 150.648,137.753 151,139.5C 151.513,138.473 152.013,137.473 152.5,136.5C 153.077,135.227 153.743,135.227 154.5,136.5C 154.167,137.167 153.833,137.833 153.5,138.5C 154.752,140.001 155.752,141.668 156.5,143.5C 157.5,142.833 158.5,142.167 159.5,141.5C 159.833,142 160.167,142.5 160.5,143C 159.833,144.333 159.167,145.667 158.5,147C 159.148,148.44 159.481,149.94 159.5,151.5C 158.5,151.5 157.5,151.5 156.5,151.5C 156.719,150.325 156.386,149.325 155.5,148.5C 154.084,150.139 152.417,150.973 150.5,151C 152.141,149.871 153.141,148.371 153.5,146.5C 153.587,143.402 153.087,143.068 152,145.5C 151.667,144.5 151.333,143.5 151,142.5C 149.864,144.743 149.03,147.076 148.5,149.5C 147.601,146.092 145.935,143.092 143.5,140.5C 144.995,138.01 145.995,135.343 146.5,132.5C 148.179,132.285 149.179,132.952 149.5,134.5 Z"/></g>
<g><path style="opacity:1" fill="#f4a86b" d="M 153.5,146.5 C 151.851,147.473 150.184,148.473 148.5,149.5C 149.03,147.076 149.864,144.743 151,142.5C 151.333,143.5 151.667,144.5 152,145.5C 153.087,143.068 153.587,143.402 153.5,146.5 Z"/></g>
<g><path style="opacity:1" fill="#f7d0b0" d="M 38.5,145.5 C 39.2389,145.369 39.9056,145.536 40.5,146C 39.3333,147.167 38.1667,148.333 37,149.5C 36.7003,147.934 37.2003,146.601 38.5,145.5 Z"/></g>
<g><path style="opacity:1" fill="#ee7719" d="M 144.5,160.5 C 141.5,160.5 138.5,160.5 135.5,160.5C 135.5,161.5 135.5,162.5 135.5,163.5C 134.522,166.487 132.522,167.654 129.5,167C 131.638,165.578 132.805,163.745 133,161.5C 131.395,164.274 129.228,164.94 126.5,163.5C 128.483,162.018 130.316,160.351 132,158.5C 132.434,155.032 131.934,151.698 130.5,148.5C 131.5,148.5 132.5,148.5 133.5,148.5C 133.34,150.199 133.506,151.866 134,153.5C 135.617,152.464 135.784,151.297 134.5,150C 135.793,149.51 137.127,149.343 138.5,149.5C 137.325,152.817 136.492,156.15 136,159.5C 138.241,156.773 140.907,156.106 144,157.5C 144.483,158.448 144.649,159.448 144.5,160.5 Z"/></g>
<g><path style="opacity:1" fill="#ee7a1e" d="M 55.5,150.5 C 60.4857,150.305 62.1524,152.472 60.5,157C 64.6006,159.504 64.4339,160.338 60,159.5C 58.9322,163.054 56.4322,164.721 52.5,164.5C 50.2579,163.229 47.9245,162.063 45.5,161C 45.0426,160.586 44.7093,160.086 44.5,159.5C 47.4465,158.679 50.4465,158.179 53.5,158C 51.2115,157.178 48.8782,156.511 46.5,156C 45.0072,154.844 45.1739,154.01 47,153.5C 50.713,155.189 54.5464,156.023 58.5,156C 56.393,154.736 55.393,152.903 55.5,150.5 Z"/></g>
<g><path style="opacity:1" fill="#ee7b20" d="M 84.5,156.5 C 85.7828,159.365 85.7828,162.365 84.5,165.5C 85.3554,166.293 86.1887,165.96 87,164.5C 87.1667,165 87.3333,165.5 87.5,166C 86.4647,167.274 85.298,168.44 84,169.5C 82.8331,173.167 81.6665,176.834 80.5,180.5C 79.8904,177.699 80.2237,174.865 81.5,172C 81.3333,171.5 81.1667,171 81,170.5C 80.1072,171.711 79.2739,171.711 78.5,170.5C 79.3256,169.549 79.4922,168.549 79,167.5C 77.5,169.833 76,172.167 74.5,174.5C 71.8469,173.715 71.1802,172.215 72.5,170C 70.1489,170.14 67.8155,170.64 65.5,171.5C 65.5,170.5 65.5,169.5 65.5,168.5C 68.2165,168.322 70.8832,167.822 73.5,167C 72.062,166.781 70.7287,166.281 69.5,165.5C 71.8333,163.5 74.1667,161.5 76.5,159.5C 78.1307,161.059 78.964,163.059 79,165.5C 80.1096,163.963 81.6096,163.297 83.5,163.5C 83.9926,161.194 84.3259,158.861 84.5,156.5 Z"/></g>
<g><path style="opacity:1" fill="#f4b580" d="M 144.5,160.5 C 141.366,161.035 138.366,162.035 135.5,163.5C 135.5,162.5 135.5,161.5 135.5,160.5C 138.5,160.5 141.5,160.5 144.5,160.5 Z"/></g>
<g><path style="opacity:1" fill="#ef802a" d="M 108.5,159.5 C 110.712,160.645 113.045,161.645 115.5,162.5C 114.167,163.5 112.833,164.5 111.5,165.5C 112.325,166.386 113.325,166.719 114.5,166.5C 114.579,167.93 114.246,169.264 113.5,170.5C 115.423,171.308 117.423,171.808 119.5,172C 117.665,174.629 115.331,175.129 112.5,173.5C 110.167,176.167 107.833,176.167 105.5,173.5C 104.566,178.173 103.066,178.506 101,174.5C 98.9195,177.284 98.2528,176.951 99,173.5C 102.33,170.365 101.83,169.031 97.5,169.5C 100.172,167.575 101.172,164.908 100.5,161.5C 101.5,161.5 102.5,161.5 103.5,161.5C 103.5,162.5 103.5,163.5 103.5,164.5C 104.93,164.421 106.264,164.754 107.5,165.5C 108.466,163.604 108.799,161.604 108.5,159.5 Z"/></g>
<g><path style="opacity:1" fill="#f9eadd" d="M 104.5,168.5 C 108.29,168.008 108.956,168.841 106.5,171C 107.167,171.333 107.833,171.667 108.5,172C 107.207,172.49 105.873,172.657 104.5,172.5C 104.5,171.167 104.5,169.833 104.5,168.5 Z"/></g>
</svg>
